:SAMPLES-PER-SECOND 30
:FRAME-RANGE 1-3535
:FULLY-SPECIFIED
:DEGREES
2762
root  -51.0118 38.3868 49.0393 5.78833 -13.8514 -1.4585
RightUpLeg  2.29969 -1.19748 1.6252
RightLeg  18.008 0.498308 -0.202058
RightFoot  -19.3585 0.0804638 3.01895
RightToes  5.38503e-012 1.26228e-014 -6.01869e-014
Spine  -1.58313 5.047 13.5258
Spine1  9.86171 6.11062 -5.10834
HEad  19.5296 53.2309 -4.22383
LeftShoulder1  0.459816 1.71622 -22.8871
LeftArm  -0.684153 8.34309 -51.1111
LeftForeArm  41.8456 5.58397 -13.2446
LeftHand  -0.00582474 5.85893 5.03552
RightShoulder  1.75201 3.89955 17.8055
RightArm  -24.1555 21.5369 54.137
RightForeArm  56.4754 0.761374 3.42044
RightHand  -0.0191818 -5.33247 -22.0252
LeftUpLeg  -26.0429 -1.68816 -0.480225
LeftLeg  -6.36449 28.0916 -0.215362
LeftFoot  -4.28612 0.289878 -4.28439
LeftToes  8.9788e-011 3.29689e-010 2.1201e-011
2763
root  -51.2936 38.034 50.6021 5.77893 -13.0984 -1.69633
RightUpLeg  4.24919 -0.838805 1.79083
RightLeg  19.9247 0.227845 -0.157459
RightFoot  -20.9528 0.212393 4.21416
RightToes  5.38503e-012 1.26228e-014 -6.01869e-014
Spine  -1.50927 5.29106 13.5367
Spine1  8.88681 6.35719 -5.31769
HEad  17.3402 56.0157 -5.71811
LeftShoulder1  0.328679 2.17613 -23.0756
LeftArm  -0.838141 8.66772 -49.9613
LeftForeArm  40.9851 7.65922 -13.4202
LeftHand  -0.00633064 5.86721 4.87861
RightShoulder  1.72044 3.67862 18.1447
RightArm  -24.0543 20.7239 53.9189
RightForeArm  55.2911 3.61787 4.08526
RightHand  -0.0744485 -5.03829 -21.774
LeftUpLeg  -27.6525 -0.55464 -0.78086
LeftLeg  -1.85968 24.5485 -0.0649354
LeftFoot  -4.42392 0.31535 -4.77741
LeftToes  8.9788e-011 3.29689e-010 2.1201e-011
2764
root  -51.5528 37.7475 52.2098 5.52905 -12.4365 -1.15605
RightUpLeg  6.0226 -0.434609 1.12095
RightLeg  22.3436 0.385462 -0.0450364
RightFoot  -21.7479 0.400584 6.01469
RightToes  5.38503e-012 1.26228e-014 -6.01869e-014
Spine  -2.00683 5.78953 13.1112
Spine1  9.27101 7.11183 -6.14436
HEad  14.1665 59.1457 -7.70772
LeftShoulder1  0.26827 2.38904 -23.2637
LeftArm  1.1821 7.12961 -48.8696
LeftForeArm  41.1244 7.29611 -14.3879
LeftHand  0.00069938 6.14065 4.46336
RightShoulder  1.77524 3.80934 18.4935
RightArm  -24.6234 17.8379 53.3194
RightForeArm  53.5191 7.02849 4.74855
RightHand  -0.163358 -4.5799 -22.2529
LeftUpLeg  -29.4586 -0.428877 -2.13531
LeftLeg  5.33346 19.6609 1.33793
LeftFoot  -2.05298 -0.0171256 0.363398
LeftToes  8.9788e-011 3.29689e-010 2.1201e-011
2765
root  -51.7392 37.595 53.7817 4.81787 -12.291 0.245987
RightUpLeg  6.53657 0.932082 -0.59992
RightLeg  27.3079 1.29832 0.500455
RightFoot  -21.0225 0.614571 8.92806
RightToes  5.38503e-012 1.26228e-014 -6.01869e-014
Spine  -1.54333 6.29705 12.2798
Spine1  9.19709 8.19835 -7.9999
HEad  11.0786 62.9955 -9.75533
LeftShoulder1  0.107438 2.94633 -24.0295
LeftArm  2.77796 4.95116 -47.0742
LeftForeArm  43.338 6.79731 -14.9102
LeftHand  0.0125244 6.77873 3.7328
RightShoulder  1.85907 3.86156 19.5651
RightArm  -24.6721 14.862 52.0973
RightForeArm  51.5097 8.10714 5.24031
RightHand  -0.239613 -4.22278 -23.0673
LeftUpLeg  -29.2685 -2.6359 -3.76809
LeftLeg  8.85183 19.4173 3.72769
LeftFoot  4.97583 -0.477861 3.12169
LeftToes  8.9788e-011 3.29689e-010 2.1201e-011
2766
root  -51.9313 37.4278 55.3211 4.26929 -10.1555 1.6602
RightUpLeg  4.46675 0.374565 -2.76043
RightLeg  36.6136 3.81656 2.78225
RightFoot  -17.4882 0.612242 13.5638
RightToes  5.38503e-012 1.26228e-014 -6.01869e-014
Spine  -1.53315 6.1484 11.288
Spine1  9.16243 8.32757 -9.33053
HEad  7.44519 65.9341 -12.4798
LeftShoulder1  0.104905 2.95783 -24.3099
LeftArm  2.26076 2.09949 -45.914
LeftForeArm  45.2105 6.7274 -14.8599
LeftHand  0.018457 7.27605 3.29853
RightShoulder  1.87542 3.73338 20.3219
RightArm  -25.6482 11.8027 51.9052
RightForeArm  51.3751 6.94357 4.83217
RightHand  -0.274112 -4.10228 -24.0473
LeftUpLeg  -29.6055 -1.37501 -6.50415
LeftLeg  14.5903 15.8373 4.53404
LeftFoot  4.55266 -0.335003 2.20169
LeftToes  8.9788e-011 3.29689e-010 2.1201e-011
2767
root  -52.149 37.3307 56.7675 3.99329 -6.77515 2.70981
RightUpLeg  -0.0250788 -1.84557 -4.5623
RightLeg  48.6672 4.58764 5.2365
RightFoot  -10.0605 -0.252291 16.3149
RightToes  5.38503e-012 1.26228e-014 -6.01869e-014
Spine  -1.77779 5.85171 10.1407
Spine1  9.24347 8.13087 -9.84999
HEad  5.0442 67.1826 -14.504
LeftShoulder1  0.210749 2.59576 -23.7237
LeftArm  3.92026 -0.866533 -46.2243
LeftForeArm  42.7802 6.4908 -15.2661
LeftHand  0.0171694 7.29255 3.20428
RightShoulder  1.8789 3.85964 19.8713
RightArm  -27.4096 7.54336 52.4084
RightForeArm  53.2902 4.77486 3.89546
RightHand  -0.173713 -4.57508 -23.7199
LeftUpLeg  -29.0041 -0.603325 -9.2188
LeftLeg  17.9895 11.4522 4.38035
LeftFoot  3.98346 -0.682567 4.89058
LeftToes  8.9788e-011 3.29689e-010 2.1201e-011
2768
root  -52.3584 37.3156 58.1559 3.17932 -3.53748 3.2933
RightUpLeg  -4.98257 -2.73446 -4.83844
RightLeg  59.7557 2.55984 4.26371
RightFoot  -0.878296 -1.31951 14.2769
RightToes  5.38503e-012 1.26228e-014 -6.01869e-014
Spine  -1.57634 5.70558 9.57677
Spine1  9.66744 8.19308 -10.4801
HEad  5.76069 66.736 -13.9863
LeftShoulder1  0.272119 2.37509 -23.2362
LeftArm  3.72577 -3.8329 -47.1108
LeftForeArm  41.7566 6.63272 -15.1933
LeftHand  0.0136495 6.98956 3.42619
RightShoulder  1.8961 3.93639 19.8296
RightArm  -28.7087 3.81424 52.2406
RightForeArm  57.0647 1.34451 2.85283
RightHand  -0.0969128 -4.92639 -22.238
LeftUpLeg  -27.2362 -1.47811 -10.5279
LeftLeg  20.869 9.45006 4.28823
LeftFoot  2.30915 -0.900077 7.39185
LeftToes  8.9788e-011 3.29689e-010 2.1201e-011
2769
root  -52.5614 37.3098 59.4909 2.29749 -0.426636 4.12689
RightUpLeg  -8.70576 -3.42866 -5.42037
RightLeg  67.4888 1.03334 2.05921
RightFoot  -0.712612 -1.20685 12.8713
RightToes  5.38503e-012 1.26228e-014 -6.01869e-014
Spine  -1.94788 5.57236 7.94089
Spine1  10.7227 7.95369 -10.2148
HEad  8.59538 65.1249 -11.7824
LeftShoulder1  0.298701 2.29877 -23.6792
LeftArm  4.53122 -6.26867 -47.5995
LeftForeArm  39.2166 6.78556 -15.2022
LeftHand  0.00633188 6.60618 3.60698
RightShoulder  1.83614 3.57837 20.3496
RightArm  -29.1014 1.90901 51.7263
RightForeArm  61.3526 -3.84288 1.75444
RightHand  -0.0147167 -5.36055 -20.8196
LeftUpLeg  -25.0562 -2.82643 -11.6639
LeftLeg  23.4451 8.14725 4.19409
LeftFoot  -0.64541 -0.694967 7.45433
LeftToes  8.9788e-011 3.29689e-010 2.1201e-011
2770
root  -52.7539 37.4267 60.8549 1.51465 2.29877 4.67696
RightUpLeg  -12.2484 -4.02037 -6.00339
RightLeg  72.0324 -0.0518667 -1.10278
RightFoot  -2.32573 -0.906291 11.2595
RightToes  5.38503e-012 1.26228e-014 -6.01869e-014
Spine  -2.13091 5.16672 6.38092
Spine1  10.8458 7.38392 -9.96996
HEad  13.238 62.2797 -7.72775
LeftShoulder1  0.284609 2.36819 -24.4123
LeftArm  4.42153 -6.97532 -47.7022
LeftForeArm  36.1909 7.27388 -14.8139
LeftHand  -0.00329596 5.97645 4.71061
RightShoulder  1.84114 3.32397 21.5232
RightArm  -29.8585 0.736154 50.9983
RightForeArm  66.6451 -5.01141 1.00929
RightHand  0.110717 -6.14039 -18.9967
LeftUpLeg  -22.0284 -3.66152 -12.4042
LeftLeg  24.3782 6.95013 3.77865
LeftFoot  -3.11789 -0.523178 7.52838
LeftToes  8.9788e-011 3.29689e-010 2.1201e-011
2771
root  -52.8987 37.6502 62.2308 0.735229 4.22668 4.63417
RightUpLeg  -15.6597 -3.76288 -6.30179
RightLeg  73.146 -0.797921 -3.99252
RightFoot  -2.09877 -0.822975 9.97963
RightToes  5.38503e-012 1.26228e-014 -6.01869e-014
Spine  -2.21765 4.87229 5.6677
Spine1  10.5655 6.99755 -10.0466
HEad  17.3674 57.0744 -4.3434
LeftShoulder1  0.354276 2.15327 -24.8048
LeftArm  3.83781 -6.51838 -48.3374
LeftForeArm  33.7214 4.83845 -14.3465
LeftHand  -0.0283271 5.27615 5.71867
RightShoulder  1.84598 3.10708 22.6014
RightArm  -31.9354 -1.01556 50.6628
RightForeArm  71.1647 -4.62238 -0.25604
RightHand  0.226629 -7.00034 -17.44
LeftUpLeg  -18.4681 -4.88498 -12.3447
LeftLeg  24.1687 6.72189 3.64116
LeftFoot  -5.16531 -0.371873 7.45997
LeftToes  8.9788e-011 3.29689e-010 2.1201e-011
